<mxfile host="Electron" modified="2024-06-24T05:12:25.434Z" agent="Mozilla/5.0 (Macintosh; Intel Mac OS X 10_15_7) AppleWebKit/537.36 (KHTML, like Gecko) draw.io/21.1.2 Chrome/106.0.5249.199 Electron/21.4.3 Safari/537.36" etag="u3igdMEYx853AmA_1aWP" version="21.1.2" type="device">
  <diagram name="Page-1" id="r6UnFRfl_-iHqwlkeRBK">
    <mxGraphModel dx="1116" dy="743" grid="1" gridSize="10" guides="1" tooltips="1" connect="1" arrows="1" fold="1" page="1" pageScale="1" pageWidth="300" pageHeight="300" math="1" shadow="0">
      <root>
        <mxCell id="0" />
        <mxCell id="1" parent="0" />
        <mxCell id="pGdtRP4Wak_l-UHCPVVS-14" value="" style="rounded=0;whiteSpace=wrap;html=1;strokeColor=#000000;fontSize=25;" parent="1" vertex="1">
          <mxGeometry x="10" y="10" width="280" height="280" as="geometry" />
        </mxCell>
        <mxCell id="pGdtRP4Wak_l-UHCPVVS-2" value="$$\mathbf{x}_{4,4}$$" style="whiteSpace=wrap;html=1;aspect=fixed;fillColor=#dae8fc;strokeColor=#000000;fontSize=25;" parent="1" vertex="1">
          <mxGeometry x="210" y="210" width="80" height="80" as="geometry" />
        </mxCell>
        <mxCell id="pGdtRP4Wak_l-UHCPVVS-3" value="$$\mathbf{x}_{2,2}$$" style="whiteSpace=wrap;html=1;aspect=fixed;fillColor=#dae8fc;strokeColor=#000000;fontSize=25;" parent="1" vertex="1">
          <mxGeometry x="90" y="90" width="50" height="50" as="geometry" />
        </mxCell>
        <mxCell id="pGdtRP4Wak_l-UHCPVVS-4" value="$$\mathbf{x}_{3,3}$$" style="whiteSpace=wrap;html=1;aspect=fixed;fillColor=#dae8fc;strokeColor=#000000;fontSize=25;" parent="1" vertex="1">
          <mxGeometry x="140" y="140" width="70" height="70" as="geometry" />
        </mxCell>
        <mxCell id="pGdtRP4Wak_l-UHCPVVS-6" value="$$\mathbf{x}_{1,2}$$" style="rounded=0;whiteSpace=wrap;html=1;fillColor=#fff2cc;strokeColor=#000000;fontSize=25;" parent="1" vertex="1">
          <mxGeometry x="90" y="10" width="50" height="80" as="geometry" />
        </mxCell>
        <mxCell id="pGdtRP4Wak_l-UHCPVVS-7" value="$$\mathbf{x}_{1,1}$$" style="whiteSpace=wrap;html=1;aspect=fixed;fillColor=#dae8fc;strokeColor=#000000;fontSize=25;" parent="1" vertex="1">
          <mxGeometry x="10" y="10" width="80" height="80" as="geometry" />
        </mxCell>
        <mxCell id="pGdtRP4Wak_l-UHCPVVS-8" value="$$\mathbf{x}_{2,3}$$" style="rounded=0;whiteSpace=wrap;html=1;fillColor=#fff2cc;strokeColor=#000000;fontSize=25;" parent="1" vertex="1">
          <mxGeometry x="140" y="90" width="70" height="50" as="geometry" />
        </mxCell>
        <mxCell id="pGdtRP4Wak_l-UHCPVVS-9" value="$$\mathbf{x}_{1,3}$$" style="rounded=0;whiteSpace=wrap;html=1;fillColor=#fff2cc;strokeColor=#000000;fontSize=25;" parent="1" vertex="1">
          <mxGeometry x="140" y="10" width="70" height="80" as="geometry" />
        </mxCell>
        <mxCell id="pGdtRP4Wak_l-UHCPVVS-10" value="$$\mathbf{x}_{1,4}$$" style="rounded=0;whiteSpace=wrap;html=1;fillColor=#fff2cc;strokeColor=#000000;fontSize=25;" parent="1" vertex="1">
          <mxGeometry x="210" y="10" width="80" height="80" as="geometry" />
        </mxCell>
        <mxCell id="pGdtRP4Wak_l-UHCPVVS-11" value="$$\mathbf{x}_{2,4}$$" style="rounded=0;whiteSpace=wrap;html=1;fillColor=#fff2cc;strokeColor=#000000;fontSize=25;" parent="1" vertex="1">
          <mxGeometry x="210" y="90" width="80" height="50" as="geometry" />
        </mxCell>
        <mxCell id="pGdtRP4Wak_l-UHCPVVS-13" value="$$\mathbf{x}_{3,4}$$" style="rounded=0;whiteSpace=wrap;html=1;fillColor=#fff2cc;strokeColor=#000000;fontSize=25;" parent="1" vertex="1">
          <mxGeometry x="210" y="140" width="80" height="70" as="geometry" />
        </mxCell>
      </root>
    </mxGraphModel>
  </diagram>
</mxfile>
